<?xml version="1.0" standalone="no"?>
<!DOCTYPE svg PUBLIC "-//W3C//DTD SVG 20010904//EN"
 "http://www.w3.org/TR/2001/REC-SVG-20010904/DTD/svg10.dtd">
<svg version="1.0" xmlns="http://www.w3.org/2000/svg"
 width="352.000000pt" height="352.000000pt" viewBox="0 0 352.000000 352.000000"
 preserveAspectRatio="xMidYMid meet">
<metadata>
Created by potrace 1.11, written by Peter Selinger 2001-2013
</metadata>
<g transform="translate(0.000000,352.000000) scale(0.100000,-0.100000)"
fill="#000000" stroke="none">
<path d="M1730 3512 c-36 -11 -679 -384 -696 -403 -15 -17 -20 -42 -24 -126
l-5 -104 -290 -167 c-160 -92 -303 -174 -319 -182 -39 -20 -73 -57 -78 -83 -3
-13 -5 -191 -6 -396 -1 -205 -4 -377 -7 -381 -3 -5 -34 -25 -70 -45 -106 -59
-100 -29 -100 -484 -1 -336 2 -399 15 -425 9 -17 41 -45 79 -68 34 -21 64 -38
66 -38 2 0 59 -32 127 -71 67 -39 143 -83 168 -97 25 -14 91 -51 147 -84 56
-32 115 -61 132 -64 30 -6 39 -3 166 66 l40 21 325 -185 c253 -146 332 -186
359 -186 28 0 107 41 361 186 l325 186 30 -17 c107 -61 147 -77 175 -72 16 4
91 42 167 85 526 301 536 307 552 338 15 27 17 79 16 425 0 458 6 426 -105
486 -57 31 -70 43 -70 63 -1 14 -2 192 -3 395 -2 347 -3 372 -21 395 -16 21
-184 122 -490 294 -28 15 -81 46 -118 67 l-66 39 -4 104 c-2 85 -6 108 -22
125 -28 31 -675 398 -711 404 -16 2 -37 2 -45 -1z m231 -354 c109 -62 199
-115 199 -118 0 -6 -65 -45 -170 -103 -30 -17 -72 -41 -92 -54 -21 -13 -40
-23 -43 -23 -3 0 -23 -11 -45 -25 -22 -14 -44 -25 -50 -25 -13 0 -400 222
-400 230 0 4 15 14 33 23 17 9 55 29 82 45 28 16 102 59 165 95 63 37 117 67
119 67 2 0 93 -51 202 -112z m-670 -346 c24 -15 114 -68 200 -116 l157 -89 -1
-234 c0 -128 -4 -232 -8 -231 -3 2 -96 54 -205 117 l-199 114 0 233 c0 129 2
234 6 234 3 0 25 -13 50 -28z m994 -206 c0 -135 -4 -229 -10 -235 -9 -9 -394
-231 -400 -231 -2 0 -3 106 -3 236 0 189 2 236 13 240 8 3 98 54 202 114 103
59 190 106 193 105 3 -2 5 -105 5 -229z m-1258 -361 c10 -18 90 -70 216 -140
26 -14 98 -55 159 -91 61 -35 112 -64 113 -64 1 0 49 -27 106 -60 73 -42 114
-60 139 -60 26 0 81 27 220 106 102 58 203 116 225 129 214 120 272 157 288
184 14 24 17 55 17 196 0 155 1 167 18 160 9 -3 115 -63 235 -132 l217 -125 0
-273 0 -273 -157 89 c-102 58 -168 89 -187 89 -41 0 -709 -381 -734 -418 -15
-23 -17 -65 -17 -427 0 -357 2 -404 17 -427 9 -14 81 -62 163 -108 80 -45 143
-86 138 -91 -4 -4 -106 -64 -226 -133 l-218 -125 -215 125 c-119 68 -220 124
-226 124 -27 0 10 27 141 103 104 60 149 92 161 113 13 26 15 82 15 425 0 352
-2 398 -17 421 -24 37 -667 406 -723 415 -28 5 -50 -4 -132 -49 -156 -88 -173
-97 -199 -114 l-24 -17 2 278 3 277 165 95 c91 52 190 109 220 125 30 17 60
35 65 40 7 6 12 -51 15 -169 3 -107 10 -186 17 -198z m65 -629 c150 -85 194
-116 186 -124 -7 -7 -15 -12 -19 -12 -4 0 -60 -31 -125 -68 -66 -38 -149 -85
-185 -106 l-66 -36 -194 111 c-107 61 -197 114 -201 117 -8 8 374 230 397 231
6 1 99 -50 207 -113z m1586 96 c15 -10 102 -61 194 -113 92 -51 164 -97 160
-101 -7 -7 -316 -184 -369 -211 l-31 -16 -193 110 c-107 61 -197 114 -201 118
-7 7 380 230 400 231 8 0 26 -8 40 -18z m-2105 -528 l202 -115 -2 -107 c-1
-59 -2 -164 -2 -234 l-1 -127 -205 117 -204 117 -1 233 c0 127 2 232 5 232 3
0 96 -52 208 -116z m837 -117 l0 -232 -47 -26 c-27 -14 -117 -65 -201 -114
-84 -48 -156 -85 -159 -81 -10 10 -7 460 3 463 5 2 95 53 199 113 105 60 193
110 198 110 4 0 7 -105 7 -233z m874 141 c88 -51 178 -102 198 -112 34 -18 38
-24 39 -60 4 -234 3 -410 -2 -418 -4 -6 -30 3 -67 23 -32 19 -123 70 -200 114
l-142 80 0 233 c0 127 3 232 6 232 4 0 79 -42 168 -92z m876 -140 l-1 -233
-200 -114 c-125 -71 -203 -110 -207 -104 -4 6 -5 111 -2 234 l5 223 195 113
c107 61 198 112 203 113 4 0 7 -105 7 -232z"/>
</g>
</svg>
